<svg xmlns="http://www.w3.org/2000/svg" xmlns:xlink="http://www.w3.org/1999/xlink" width="500" zoomAndPan="magnify" viewBox="0 0 375 374.999991" height="500" preserveAspectRatio="xMidYMid meet" version="1.0"><defs><clipPath id="2019742a0d"><path d="M 56.199219 37.5 L 318.800781 37.5 L 318.800781 300.101562 L 56.199219 300.101562 Z M 56.199219 37.5 " clip-rule="nonzero"/></clipPath><clipPath id="04b3cb20cb"><path d="M 187.5 37.5 C 114.984375 37.5 56.199219 96.285156 56.199219 168.800781 C 56.199219 241.316406 114.984375 300.101562 187.5 300.101562 C 260.015625 300.101562 318.800781 241.316406 318.800781 168.800781 C 318.800781 96.285156 260.015625 37.5 187.5 37.5 " clip-rule="nonzero"/></clipPath><clipPath id="8a43f6239b"><path d="M 201.777344 0 L 375 0 L 375 162.242188 L 201.777344 162.242188 Z M 201.777344 0 " clip-rule="nonzero"/></clipPath><clipPath id="8b2e5a554e"><path d="M 288.386719 -10.984375 C 240.554688 -10.984375 201.777344 27.792969 201.777344 75.628906 C 201.777344 123.460938 240.554688 162.242188 288.386719 162.242188 C 336.222656 162.242188 375 123.460938 375 75.628906 C 375 27.792969 336.222656 -10.984375 288.386719 -10.984375 " clip-rule="nonzero"/></clipPath><clipPath id="e8d1ea7788"><path d="M 111.898438 75.628906 L 149.449219 75.628906 L 149.449219 113.179688 L 111.898438 113.179688 Z M 111.898438 75.628906 " clip-rule="nonzero"/></clipPath><clipPath id="b7ebd75e43"><path d="M 130.671875 75.628906 C 120.304688 75.628906 111.898438 84.035156 111.898438 94.402344 C 111.898438 104.773438 120.304688 113.179688 130.671875 113.179688 C 141.042969 113.179688 149.449219 104.773438 149.449219 94.402344 C 149.449219 84.035156 141.042969 75.628906 130.671875 75.628906 " clip-rule="nonzero"/></clipPath></defs><rect x="-37.5" width="450" fill="#ffffff" y="-37.499999" height="449.999989" fill-opacity="1"/><rect x="-37.5" width="450" fill="#ffffff" y="-37.499999" height="449.999989" fill-opacity="1"/><rect x="-37.5" width="450" fill="#ffffff" y="-37.499999" height="449.999989" fill-opacity="1"/><g clip-path="url(#2019742a0d)"><g clip-path="url(#04b3cb20cb)"><path fill="#000000" d="M 56.199219 37.5 L 318.800781 37.5 L 318.800781 300.101562 L 56.199219 300.101562 Z M 56.199219 37.5 " fill-opacity="1" fill-rule="nonzero"/></g></g><g clip-path="url(#8a43f6239b)"><g clip-path="url(#8b2e5a554e)"><path fill="#ffffff" d="M 201.777344 -10.984375 L 375 -10.984375 L 375 162.242188 L 201.777344 162.242188 Z M 201.777344 -10.984375 " fill-opacity="1" fill-rule="nonzero"/></g></g><g clip-path="url(#e8d1ea7788)"><g clip-path="url(#b7ebd75e43)"><path fill="#ffffff" d="M 111.898438 75.628906 L 149.449219 75.628906 L 149.449219 113.179688 L 111.898438 113.179688 Z M 111.898438 75.628906 " fill-opacity="1" fill-rule="nonzero"/></g></g><path stroke-linecap="round" transform="matrix(0.272514, -0.69928, 0.69881, 0.272331, 84.851241, 334.775983)" fill="none" stroke-linejoin="miter" d="M 9.999283 10.003034 L 175.877921 10.001499 " stroke="#000000" stroke-width="20" stroke-opacity="1" stroke-miterlimit="4"/><path stroke-linecap="round" transform="matrix(-0.241534, -0.71117, 0.71016, -0.241191, 232.53686, 340.220867)" fill="none" stroke-linejoin="miter" d="M 10.002655 10.000248 L 176.739715 9.9991 " stroke="#000000" stroke-width="20" stroke-opacity="1" stroke-miterlimit="4"/></svg>